<svg xmlns="http://www.w3.org/2000/svg" width="70px" id="Layer_1" data-name="Layer 1" viewBox="0 0 64 64"><defs><style>.cls-1{fill:#efefef;}</style></defs><title>2 copy 4</title><path class="cls-1" d="M52.42,39a23.12,23.12,0,0,0,.16-2.49,20.61,20.61,0,0,0-1.62-8A19.68,19.68,0,0,0,49.06,25a1,1,0,0,0-1.38-.27,1,1,0,0,0-.27,1.39,18.11,18.11,0,0,1,1.71,3.15,17.88,17.88,0,0,1,1.42,6.45,10.3,10.3,0,0,0-1.76-1.48,9.78,9.78,0,0,0-13.62,2.4,9.81,9.81,0,0,0-.7,10,7.21,7.21,0,0,0-5.36,3.07l-.18.26A5.64,5.64,0,0,1,21,51.41a19.39,19.39,0,0,1-2.13-1.81c-.41-.41-.81-.85-1.18-1.3h.16a6.24,6.24,0,0,0,3-11.72,1,1,0,0,0-.39-.33,1.62,1.62,0,0,1-.82-2.14h0a5.94,5.94,0,0,0-3-7.86l-.08,0,.09-.14a19.37,19.37,0,0,1,2.27-2.76,18.92,18.92,0,0,1,5.91-4A1,1,0,0,0,24,17.5a20.58,20.58,0,0,0-6.54,4.41A19.76,19.76,0,0,0,14.94,25c-.27.39-.51.81-.75,1.22a1,1,0,0,0-.09.13v0A19.05,19.05,0,0,0,13,28.45a20.65,20.65,0,0,0-1.2,12.16A20.07,20.07,0,0,0,13,44.47,20.38,20.38,0,0,0,14.93,48a20,20,0,0,0,4.85,5l0,0,.05,0c.21.15.41.32.63.47a20.51,20.51,0,0,0,7.36,3.1,21.21,21.21,0,0,0,8.3,0,20.51,20.51,0,0,0,7.36-3.1,21.57,21.57,0,0,0,3-2.51A20.25,20.25,0,0,0,49.06,48a19.76,19.76,0,0,0,1.9-3.5,20.07,20.07,0,0,0,1.2-3.86c.1-.48.16-1,.22-1.45A1.55,1.55,0,0,0,52.42,39Zm-39-2.49a18.67,18.67,0,0,1,1.46-7.23c.18-.43.39-.85.61-1.26l.3.12a4,4,0,0,1,2.08,2.19,3.91,3.91,0,0,1-.08,3h0a3.62,3.62,0,0,0,1.37,4.52,1,1,0,0,0,.42.37,4.24,4.24,0,0,1-3.45,7.75s-.07,0-.11,0a18.72,18.72,0,0,1-1.14-2.23,18.45,18.45,0,0,1-1.08-3.48A18.86,18.86,0,0,1,13.42,36.46Zm35.7,7.23a18.2,18.2,0,0,1-1.71,3.16,18.64,18.64,0,0,1-2.27,2.75,19.29,19.29,0,0,1-2.75,2.27,17.84,17.84,0,0,1-3.16,1.71,18.48,18.48,0,0,1-3.48,1.09,18.94,18.94,0,0,1-7.5,0c-.64-.14-1.27-.31-1.9-.51a7.68,7.68,0,0,0,4.21-3l.18-.26a5.21,5.21,0,0,1,5.43-2.1,1,1,0,0,0,1.07-.45,1,1,0,0,0-.08-1.16A7.82,7.82,0,1,1,50,38.33l0,0a0,0,0,0,0,0,0,6.46,6.46,0,0,1,.31.64c-.05.4-.1.8-.18,1.19A18.45,18.45,0,0,1,49.12,43.69Z"></path><path class="cls-1" d="M28.64,22.88l8.15,4.71a1,1,0,0,0,.5.13h.05a1.09,1.09,0,0,0,.5-.13L46,22.88a1,1,0,0,0,.5-.87l0-9.36a1,1,0,0,0-.52-.85h0l-.08,0-8-4.64a1,1,0,0,0-1,0l-8,4.64a1,1,0,0,0-.64.92l0,9.36A1,1,0,0,0,28.64,22.88Zm1.52-8.51,6.16,3.55,0,7.09-6.2-3.57ZM38.34,25l0-7,6.14-3.57,0,7.07Zm-1-15.88,6.13,3.55-6.1,3.54L31.2,12.66Z"></path></svg> 