<svg xmlns="http://www.w3.org/2000/svg" width="70px" id="Layer_1" data-name="Layer 1" viewBox="0 0 64 64"><defs><style>.cls-1{fill:#efefef;}</style></defs><title>2</title><path class="cls-1" d="M33.35,49.21a20.9,20.9,0,0,0-4.71-3.52,15.31,15.31,0,0,0,2.87-2.22,15,15,0,0,0,3.17-4.71,14.91,14.91,0,0,0,0-11.53,14.81,14.81,0,0,0-19.41-7.88A14.84,14.84,0,0,0,7.39,38.76a14.75,14.75,0,0,0,6,6.93,20.9,20.9,0,0,0-4.71,3.52A20.68,20.68,0,0,0,4.3,55.77a1,1,0,0,0,.53,1.31,1.09,1.09,0,0,0,.39.08,1,1,0,0,0,.92-.61,18.67,18.67,0,0,1,9.91-9.91,1.25,1.25,0,0,0,.12-.08.9.9,0,0,0,.2-.14,1,1,0,0,0,.14-.21s.06-.06.07-.1h0a1,1,0,0,0,.08-.37h0v0a1.05,1.05,0,0,0-.08-.35h0l-.07-.11a1.53,1.53,0,0,0-.14-.21,1.43,1.43,0,0,0-.24-.16l-.08-.05A12.89,12.89,0,0,1,12,42.05,12.67,12.67,0,0,1,9.23,38a12.78,12.78,0,0,1,2.75-14,12.7,12.7,0,0,1,4.07-2.74,12.87,12.87,0,0,1,10,0,12.7,12.7,0,0,1,4.07,2.74,12.85,12.85,0,0,1,2.75,14,12.67,12.67,0,0,1-2.75,4.07A12.89,12.89,0,0,1,26,44.8s-.06,0-.1.07a1,1,0,0,0-.22.14,1,1,0,0,0-.14.21l-.07.11h0a1.05,1.05,0,0,0-.08.36v0a1.11,1.11,0,0,0,.08.36h0a.77.77,0,0,0,.19.28l.07.06a1.25,1.25,0,0,0,.22.16s0,0,.05,0a18.67,18.67,0,0,1,9.91,9.91,1,1,0,0,0,.92.61,1.09,1.09,0,0,0,.39-.08,1,1,0,0,0,.53-1.31A20.68,20.68,0,0,0,33.35,49.21Z"></path><path class="cls-1" d="M16.51,32.16V30.47a1,1,0,0,0-2,0v1.69a1,1,0,1,0,2,0Z"></path><path class="cls-1" d="M25.44,33.16a1,1,0,0,0,1-1V30.47a1,1,0,0,0-2,0v1.69A1,1,0,0,0,25.44,33.16Z"></path><path class="cls-1" d="M59.7,44.42a20.74,20.74,0,0,0-9.13-10.08,14.54,14.54,0,0,0,2.86-2.22,14.78,14.78,0,0,0,0-20.94A14.55,14.55,0,0,0,48.73,8,14.88,14.88,0,0,0,37.2,8a14.7,14.7,0,0,0-4.71,3.17,14.92,14.92,0,0,0-3.17,4.71,1,1,0,1,0,1.84.78A12.81,12.81,0,1,1,48,33.45l-.1.07a1.07,1.07,0,0,0-.22.15.77.77,0,0,0-.14.21.86.86,0,0,0-.07.1h0a1.11,1.11,0,0,0-.08.36v0a1.05,1.05,0,0,0,.08.36h0a.91.91,0,0,0,.19.29l.06.06a1.14,1.14,0,0,0,.23.15s0,0,.05,0a18.67,18.67,0,0,1,9.91,9.91,1,1,0,0,0,.92.61,1.09,1.09,0,0,0,.39-.08A1,1,0,0,0,59.7,44.42Z"></path><path class="cls-1" d="M38.44,20.82v-1.7a1,1,0,0,0-2,0v1.7a1,1,0,0,0,2,0Z"></path><path class="cls-1" d="M48.37,20.82v-1.7a1,1,0,1,0-2,0v1.7a1,1,0,0,0,2,0Z"></path><path class="cls-1" d="M25.35,36.65a1,1,0,0,0-1.41,0,4.59,4.59,0,0,1-1.45,1h0a4.53,4.53,0,0,1-3.54,0h0a4.48,4.48,0,0,1-1.45-1,1,1,0,1,0-1.41,1.42,6.52,6.52,0,0,0,2.08,1.4h0a6.49,6.49,0,0,0,5.09,0h0a6.52,6.52,0,0,0,2.08-1.4A1,1,0,0,0,25.35,36.65Z"></path><path class="cls-1" d="M45.57,25.39a4.48,4.48,0,0,1-1.45,1h0a4.53,4.53,0,0,1-3.54,0,4.59,4.59,0,0,1-1.45-1,1,1,0,0,0-1.41,1.42,6.52,6.52,0,0,0,2.08,1.4h0a6.51,6.51,0,0,0,5.1,0h0A6.52,6.52,0,0,0,47,26.81a1,1,0,0,0,0-1.41A1,1,0,0,0,45.57,25.39Z"></path></svg> 