<svg xmlns="http://www.w3.org/2000/svg" width="70px" id="Layer_1" data-name="Layer 1" viewBox="0 0 64 64"><defs><style>.cls-1{fill:#efefef;}</style></defs><title>2 copy</title><path class="cls-1" d="M57.83,20.31a1,1,0,0,0-1.26-.66,1,1,0,0,0-.65,1.26A5.57,5.57,0,0,1,54,27L42.45,36.06a7,7,0,0,1-.62.45,7.08,7.08,0,0,1-.66.38c-.22.11-.45.22-.68.31s-.47.18-.71.25-.49.12-.73.17a6,6,0,0,1-.74.1,5.79,5.79,0,0,1-.72,0c-.26,0-.51,0-.77,0s-.5-.06-.74-.11a6.7,6.7,0,0,1-.74-.19,6,6,0,0,1-.71-.25c-.24-.1-.47-.21-.7-.33s-.45-.26-.67-.4-.43-.31-.63-.48h0a7.41,7.41,0,0,1-.58-.54,5.78,5.78,0,0,1-.52-.59c-.16-.2-.31-.41-.45-.62a6.24,6.24,0,0,1-.38-.66,7.27,7.27,0,0,1-.32-.69c-.09-.23-.17-.46-.24-.7a6.41,6.41,0,0,1-.17-.73c-.05-.25-.08-.49-.11-.74s0-.5,0-.75a6.28,6.28,0,0,1,0-.75,6.62,6.62,0,0,1,.11-.74c.05-.24.11-.49.18-.73s.16-.48.26-.71a7.51,7.51,0,0,1,.33-.71l6.81-13a5.61,5.61,0,0,1,5.63-2.95,1,1,0,1,0,.25-2,7.59,7.59,0,0,0-7.65,4l-6.8,13a7.85,7.85,0,0,0-.42.88c-.12.3-.23.6-.32.9s-.17.61-.23.92-.11.62-.14.94-.05.62-.05.93,0,.63,0,.94.07.62.13.93a9.28,9.28,0,0,0,.22.91c.09.31.19.6.31.9a7.34,7.34,0,0,0,.39.86c.15.28.31.56.48.83s.37.53.57.78a9.05,9.05,0,0,0,.65.74.3.3,0,0,1,.08.08c-7.26,7.69-8.38,11.58-7.76,15a6.54,6.54,0,0,0,2.71,4.23,6.75,6.75,0,0,0,2.38,1,6.9,6.9,0,0,0,1.36.14,6.76,6.76,0,0,0,3.5-1,6.56,6.56,0,0,0,3-6.7,6.54,6.54,0,0,0-2.71-4.23,6.38,6.38,0,0,0-2.39-1,1,1,0,0,0-.41,2A4.56,4.56,0,0,1,32,47,4.55,4.55,0,0,1,33.87,50a4.63,4.63,0,0,1,0,1.74,4.53,4.53,0,0,1-3.65,3.54,4.48,4.48,0,0,1-1.75,0,4.56,4.56,0,0,1-1.66-.72,4.34,4.34,0,0,1-1.25-1.31,4.39,4.39,0,0,1-.63-1.63c-.44-2.48.16-5.83,7.35-13.41a8,8,0,0,0,.74.44,8.64,8.64,0,0,0,.87.42c.3.12.6.23.9.32s.61.17.93.23.62.11.93.14.65,0,1,0,.61,0,.9,0,.62-.08.93-.13.62-.14.91-.22.6-.19.9-.31.58-.25.86-.4a7.74,7.74,0,0,0,.83-.48,8.54,8.54,0,0,0,.78-.56l11.58-9.07a7.58,7.58,0,0,0,2.55-8.24Z"></path><path class="cls-1" d="M47.46,12a2.15,2.15,0,1,0-2.15-2.14A2.14,2.14,0,0,0,47.46,12Zm0-2.29a.15.15,0,0,1,.14.15.14.14,0,0,1-.14.14.15.15,0,0,1-.15-.14A.15.15,0,0,1,47.46,9.67Z"></path><path class="cls-1" d="M55.3,19a2.15,2.15,0,1,0-2.14-2.15A2.14,2.14,0,0,0,55.3,19Zm0-2.29a.14.14,0,0,1,.14.14.14.14,0,1,1-.28,0A.14.14,0,0,1,55.3,16.68Z"></path><path class="cls-1" d="M22.06,41.9a9.11,9.11,0,0,1-5.65-3.82,7.38,7.38,0,0,0,2.39-2.17,7.35,7.35,0,1,0-4.69,3c.14,0,.27-.06.41-.09a.42.42,0,0,0,0,.1,11.15,11.15,0,0,0,7.09,4.94l.21,0a1,1,0,0,0,1-.79A1,1,0,0,0,22.06,41.9Zm-8.3-5A5.27,5.27,0,1,1,11.9,26.56a6.07,6.07,0,0,1,.94-.08,5.16,5.16,0,0,1,3,.95,5.27,5.27,0,0,1-2.08,9.51Z"></path><path class="cls-1" d="M12.83,29.61A2.15,2.15,0,1,0,15,31.75,2.14,2.14,0,0,0,12.83,29.61Zm0,2.29a.15.15,0,0,1-.14-.15.14.14,0,0,1,.28,0A.15.15,0,0,1,12.83,31.9Z"></path></svg> 